<svg width="250" height="229" viewBox="0 0 250 229" fill="white" xmlns="http://www.w3.org/2000/svg">
<path d="M85 18C68.8875 18 52.8875 27.3846 41.2222 38C24.3977 53.3103 11.9512 76.5153 8.44444 99C4.84689 122.067 8.57448 146.161 21.2222 165.778C36.6574 189.718 60.1836 204.892 86.5 214.5C108.813 222.646 136.261 223.728 158.889 216.5C177.636 210.511 195.828 204.372 210 190C220.479 179.373 230.027 163.465 233.778 149C239.883 125.45 245.689 96.9238 241.389 72.5555C236.667 45.7971 218.377 28.4722 194 18.5C178.252 12.0578 159.787 8 142.778 8C131.121 8 119.432 7.74663 107.778 8C99.9937 8.16921 92.2846 11 84.5556 11C80.8669 11 70.5607 14.8787 69 18" stroke="black" stroke-width="14" stroke-linecap="round"/>
<path d="M68 79C66.0742 79 64.6862 75.5897 66.5556 75.0556C68.1961 74.5868 74.1775 74.2886 75.4444 75.5556C81.4232 81.5343 60.0257 82.5683 61.2222 81.2222C62.0328 80.3103 67.4778 78.9222 67.9444 80.5556C68.3123 81.8431 63.8989 80.1948 70 78.5C73.3177 77.5784 76.4699 78 71 78C68.0478 78 65.8256 75.4128 69 77" stroke="black" stroke-width="15" stroke-linecap="round"/>
<path d="M209 82C204.843 82 202.514 82.5137 199.5 79.5C197.189 77.1887 197.001 72.5484 200.944 72.0556C203.285 71.763 209.632 73.2906 207.778 77C206.079 80.3985 193.006 79.8401 196.444 78.2222C197.923 77.5264 208.253 77.4304 206.889 80.5C205.908 82.7073 197.111 84.8576 197.111 80.5C197.111 78.06 203.103 78.6585 204.222 79.7778C205.386 80.9411 198.008 80.6053 196.222 76.2222C194.357 71.6444 199.536 71.6469 202.389 74.5C204.126 76.2368 204.276 81.0073 200.556 79.9444C197.846 79.1704 204.408 76.369 206.778 77.2222C210.068 78.4067 209.316 84.57 205 80C201.397 76.1853 207.889 76.8726 207.889 77.5556C207.889 81.147 199.115 80.5048 197.556 78.5C194.221 74.2126 205.211 78.2349 207 80.7778C210.343 85.5289 201.759 84 199 84" stroke="black" stroke-width="15" stroke-linecap="round"/>
<path d="M57.1426 138.35C57.6854 143.507 65.2563 147.205 69.1397 149.336C76.8809 153.584 84.5777 157.852 92.9247 160.81C98.8056 162.894 104.949 163.928 110.851 165.937C115.93 167.666 121.766 168.614 127.103 169.11C134.392 169.788 141.459 170.366 148.795 170.366C158.354 170.366 166.173 167.961 175.126 165.065C184.77 161.945 196.349 154.619 202.015 146.023C206.854 138.681 212.198 130.545 212.198 121.401" stroke="black" stroke-width="13" stroke-linecap="round"/>
</svg>
